# xmcd CD database file
#
# Track frame offsets:
#	150
#	13338
#	58491
#	103776
#	124394
#	145259
#	184442
#	198563
#	213779
#	240882
#	285217
#
# Disc length: 4057 seconds
#
# Revision: 0
# Processed by: cddbd v1.5PL3 Copyright (c) Steve Scherf et al.
# Submitted via: CDex 1.51
#
DISCID=a80fd70b
DTITLE=The Kevin Norton Quartet  - Dream Catcher
DYEAR=2003
DGENRE=Jazz
TTITLE0=Translator
TTITLE1=The Dream Catcher
TTITLE2=Confluence
TTITLE3=Resolved
TTITLE4=The Archer
TTITLE5=Night Light
TTITLE6=That Story About FREEDOM!
TTITLE7=Conversion Factor
TTITLE8=Paradigm Shift
TTITLE9=P.C.O.P.
TTITLE10=Melancholy
EXTD=YEAR: 2003
EXTT0=
EXTT1=
EXTT2=
EXTT3=
EXTT4=
EXTT5=
EXTT6=
EXTT7=
EXTT8=
EXTT9=
EXTT10=
PLAYORDER=
